<svg aria-hidden="true" style="position: absolute; width: 0; height: 0; overflow: hidden;" version="1.1" xmlns="http://www.w3.org/2000/svg" xmlns:xlink="http://www.w3.org/1999/xlink">
<defs>
<symbol id="icon-dollar" viewBox="0 0 20 20">
<path d="M10 1.25C5.16797 1.25 1.25 5.16797 1.25 10C1.25 14.832 5.16797 18.75 10 18.75C14.832 18.75 18.75 14.832 18.75 10C18.75 5.16797 14.832 1.25 10 1.25ZM10 17.2656C5.98828 17.2656 2.73438 14.0117 2.73438 10C2.73438 5.98828 5.98828 2.73438 10 2.73438C14.0117 2.73438 17.2656 5.98828 17.2656 10C17.2656 14.0117 14.0117 17.2656 10 17.2656ZM10.9316 9.54687L10.4355 9.43164V6.80859C11.1777 6.91016 11.6367 7.375 11.7148 7.94531C11.7246 8.02344 11.791 8.08008 11.8691 8.08008H12.7461C12.8379 8.08008 12.9102 8 12.9023 7.9082C12.7832 6.69141 11.7813 5.91016 10.4434 5.77539V5.13672C10.4434 5.05078 10.373 4.98047 10.2871 4.98047H9.73828C9.65234 4.98047 9.58203 5.05078 9.58203 5.13672V5.78125C8.19922 5.91602 7.11719 6.67969 7.11719 8.10547C7.11719 9.42578 8.08984 10.0625 9.11133 10.3066L9.59375 10.4297V13.2168C8.73047 13.1016 8.24609 12.6406 8.14648 12.0195C8.13477 11.9453 8.06836 11.8906 7.99219 11.8906H7.08984C6.99805 11.8906 6.92578 11.9688 6.93359 12.0605C7.02148 13.1348 7.83594 14.123 9.57422 14.25V14.8633C9.57422 14.9492 9.64453 15.0195 9.73047 15.0195H10.2852C10.3711 15.0195 10.4414 14.9492 10.4414 14.8613L10.4375 14.2422C11.9668 14.1074 13.0605 13.2891 13.0605 11.8203C13.0586 10.4648 12.1973 9.85937 10.9316 9.54687V9.54687ZM9.5918 9.23047C9.48242 9.19922 9.39063 9.16992 9.29883 9.13281C8.63867 8.89453 8.33203 8.50977 8.33203 8.01367C8.33203 7.30469 8.86914 6.90039 9.5918 6.80859V9.23047ZM10.4355 13.2227V10.6113C10.4961 10.6289 10.5508 10.6426 10.6074 10.6543C11.5312 10.9355 11.8418 11.3262 11.8418 11.9258C11.8418 12.6895 11.2676 13.1484 10.4355 13.2227Z" fill=""/>
</symbol>
<symbol id="icon-car" viewBox="0 0 20 20">
<path d="M17.31 8.46331L16.17 5.04248C16.0046 4.54455 15.6865 4.1114 15.2609 3.80457C14.8353 3.49774 14.3238 3.33285 13.7991 3.33331H6.20079C5.67612 3.33285 5.16464 3.49774 4.73903 3.80457C4.31342 4.1114 3.99533 4.54455 3.82996 5.04248L2.68996 8.46331C2.38714 8.59038 2.12852 8.80395 1.9465 9.07728C1.76447 9.35062 1.66712 9.67158 1.66663 9.99998V14.1666C1.66663 14.7941 2.01913 15.335 2.53246 15.6191C2.52163 15.6741 2.49996 15.7241 2.49996 15.7816V17.5C2.49996 17.721 2.58776 17.933 2.74404 18.0892C2.90032 18.2455 3.11228 18.3333 3.33329 18.3333H4.16663C4.38764 18.3333 4.5996 18.2455 4.75588 18.0892C4.91216 17.933 4.99996 17.721 4.99996 17.5V15.8333H15V17.5C15 17.721 15.0878 17.933 15.244 18.0892C15.4003 18.2455 15.6123 18.3333 15.8333 18.3333H16.6666C16.8876 18.3333 17.0996 18.2455 17.2559 18.0892C17.4122 17.933 17.5 17.721 17.5 17.5V15.7816C17.5 15.7241 17.4783 15.6733 17.4675 15.6191C17.7286 15.4768 17.9468 15.2668 18.0991 15.0113C18.2514 14.7558 18.3323 14.4641 18.3333 14.1666V9.99998C18.3333 9.30915 17.91 8.71581 17.31 8.46331ZM3.33329 14.1666V9.99998H16.6666L16.6683 14.1666H3.33329ZM6.20079 4.99998H13.7983C14.1575 4.99998 14.4758 5.22831 14.5891 5.56998L15.5108 8.33331H4.48913L5.40996 5.56998C5.46525 5.40398 5.57139 5.25959 5.71333 5.15728C5.85528 5.05497 6.02582 4.99994 6.20079 4.99998V4.99998Z" fill=""/>
<path d="M5.41663 13.3333C6.10698 13.3333 6.66663 12.7737 6.66663 12.0833C6.66663 11.393 6.10698 10.8333 5.41663 10.8333C4.72627 10.8333 4.16663 11.393 4.16663 12.0833C4.16663 12.7737 4.72627 13.3333 5.41663 13.3333Z" fill=""/>
<path d="M14.5834 13.3333C15.2737 13.3333 15.8334 12.7737 15.8334 12.0833C15.8334 11.393 15.2737 10.8333 14.5834 10.8333C13.893 10.8333 13.3334 11.393 13.3334 12.0833C13.3334 12.7737 13.893 13.3333 14.5834 13.3333Z" fill=""/>
</symbol>
<symbol id="icon-user" viewBox="0 0 20 20">
<g clip-path="url(#clip0_16_332)">
<path d="M7.5 10C8.49456 10 9.44839 9.60491 10.1517 8.90165C10.8549 8.19839 11.25 7.24456 11.25 6.25C11.25 5.25544 10.8549 4.30161 10.1517 3.59835C9.44839 2.89509 8.49456 2.5 7.5 2.5C6.50544 2.5 5.55161 2.89509 4.84835 3.59835C4.14509 4.30161 3.75 5.25544 3.75 6.25C3.75 7.24456 4.14509 8.19839 4.84835 8.90165C5.55161 9.60491 6.50544 10 7.5 10V10ZM10 6.25C10 6.91304 9.73661 7.54893 9.26777 8.01777C8.79893 8.48661 8.16304 8.75 7.5 8.75C6.83696 8.75 6.20107 8.48661 5.73223 8.01777C5.26339 7.54893 5 6.91304 5 6.25C5 5.58696 5.26339 4.95107 5.73223 4.48223C6.20107 4.01339 6.83696 3.75 7.5 3.75C8.16304 3.75 8.79893 4.01339 9.26777 4.48223C9.73661 4.95107 10 5.58696 10 6.25V6.25ZM15 16.25C15 17.5 13.75 17.5 13.75 17.5H1.25C1.25 17.5 0 17.5 0 16.25C0 15 1.25 11.25 7.5 11.25C13.75 11.25 15 15 15 16.25ZM13.75 16.245C13.7487 15.9375 13.5575 15.0125 12.71 14.165C11.895 13.35 10.3613 12.5 7.5 12.5C4.6375 12.5 3.105 13.35 2.29 14.165C1.4425 15.0125 1.2525 15.9375 1.25 16.245H13.75Z" fill=""/>
<path fill-rule="evenodd" clip-rule="evenodd" d="M19.8176 6.43246C19.8758 6.49051 19.9219 6.55948 19.9534 6.63542C19.985 6.71135 20.0012 6.79275 20.0012 6.87496C20.0012 6.95717 19.985 7.03857 19.9534 7.1145C19.9219 7.19043 19.8758 7.2594 19.8176 7.31746L16.0676 11.0675C16.0095 11.1257 15.9405 11.1718 15.8646 11.2033C15.7887 11.2349 15.7073 11.2511 15.6251 11.2511C15.5428 11.2511 15.4614 11.2349 15.3855 11.2033C15.3096 11.1718 15.2406 11.1257 15.1826 11.0675L13.3076 9.19246C13.1902 9.0751 13.1243 8.91593 13.1243 8.74996C13.1243 8.58399 13.1902 8.42482 13.3076 8.30746C13.4249 8.1901 13.5841 8.12417 13.7501 8.12417C13.916 8.12417 14.0752 8.1901 14.1926 8.30746L15.6251 9.74121L18.9326 6.43246C18.9906 6.37425 19.0596 6.32807 19.1355 6.29657C19.2114 6.26506 19.2928 6.24884 19.3751 6.24884C19.4573 6.24884 19.5387 6.26506 19.6146 6.29657C19.6905 6.32807 19.7595 6.37425 19.8176 6.43246V6.43246Z" fill=""/>
</g>
<defs>
<clipPath id="clip0_16_332">
<rect width="20" height="20" fill="white"/>
</clipPath>
</defs>
</symbol>
<symbol id="icon-heart" viewBox="0 0 20 20">
<path d="M9.99997 17.5C9.46247 17.0234 8.85497 16.5275 8.21247 16H8.20414C5.94164 14.15 3.37747 12.0567 2.24497 9.54835C1.8733 8.75002 1.6758 7.88169 1.66664 7.00002C1.6654 6.40167 1.78373 5.80911 2.01467 5.25712C2.24561 4.70514 2.58451 4.20486 3.01148 3.78566C3.43844 3.36646 3.94485 3.0368 4.50098 2.81602C5.05711 2.59524 5.65174 2.48781 6.24997 2.50002C7.23383 2.50157 8.1965 2.78592 9.0233 3.31919C9.38661 3.55499 9.71532 3.84023 9.99997 4.16669C10.2866 3.84169 10.615 3.55669 10.9775 3.31919C11.8039 2.78582 12.7664 2.50145 13.75 2.50002C14.3482 2.48781 14.9428 2.59524 15.499 2.81602C16.0551 3.0368 16.5615 3.36646 16.9885 3.78566C17.4154 4.20486 17.7543 4.70514 17.9853 5.25712C18.2162 5.80911 18.3345 6.40167 18.3333 7.00002C18.3248 7.88237 18.1276 8.75268 17.755 9.55252C16.6225 12.0609 14.0591 14.1534 11.7966 16L11.7883 16.0067C11.145 16.5309 10.5383 17.0267 10.0008 17.5067L9.99997 17.5ZM6.24997 4.16669C5.47373 4.15697 4.72503 4.45406 4.16664 4.99335C3.90035 5.25492 3.68936 5.56734 3.5462 5.91206C3.40304 6.25678 3.33064 6.62676 3.3333 7.00002C3.34247 7.64169 3.4883 8.27502 3.75997 8.85669C4.29458 9.93893 5.01591 10.9184 5.8908 11.75C6.71664 12.5834 7.66664 13.39 8.4883 14.0684C8.7158 14.2559 8.94747 14.445 9.17914 14.6342L9.32497 14.7534C9.54747 14.935 9.77747 15.1234 9.99997 15.3084L10.0108 15.2983L10.0158 15.2942H10.0208L10.0283 15.2884H10.0366L10.0516 15.2758L10.0858 15.2484L10.0916 15.2434L10.1008 15.2367H10.1058L10.1133 15.23L10.6666 14.7759L10.8116 14.6567C11.0458 14.4658 11.2775 14.2767 11.505 14.0892C12.3266 13.4109 13.2775 12.605 14.1033 11.7675C14.9784 10.9363 15.6997 9.95713 16.2341 8.87502C16.5108 8.28835 16.6591 7.64835 16.6675 7.00002C16.6691 6.62783 16.5961 6.2591 16.4528 5.91559C16.3096 5.57208 16.0989 5.26076 15.8333 5.00002C15.276 4.45829 14.5272 4.15876 13.75 4.16669C13.2811 4.1627 12.8167 4.25799 12.3872 4.44628C11.9578 4.63457 11.573 4.91161 11.2583 5.25919L9.99997 6.70919L8.74164 5.25919C8.42689 4.91161 8.04216 4.63457 7.61272 4.44628C7.18328 4.25799 6.71886 4.1627 6.24997 4.16669Z" fill=""/>
</symbol>
<symbol id="icon-mail" viewBox="0 0 20 20">
<path fill-rule="evenodd" clip-rule="evenodd" d="M1.25 4.375L1.875 3.75H18.125L18.75 4.375V15.625L18.125 16.25H1.875L1.25 15.625V4.375ZM2.5 5.66875V15H17.5V5.67L10.3875 11.125H9.625L2.5 5.66875ZM16.2875 5H3.7125L10 9.83625L16.2875 5Z" fill=""/>
</symbol>
<symbol id="icon-marker" viewBox="0 0 20 20">
<path d="M10.0002 3.7334C9.37063 3.7334 8.75516 3.9201 8.23166 4.26989C7.70817 4.61968 7.30015 5.11685 7.05921 5.69852C6.81827 6.2802 6.75523 6.92026 6.87806 7.53777C7.00089 8.15528 7.30408 8.72249 7.74927 9.16769C8.19447 9.61289 8.76169 9.91607 9.37919 10.0389C9.9967 10.1617 10.6368 10.0987 11.2184 9.85775C11.8001 9.61681 12.2973 9.20879 12.6471 8.6853C12.9969 8.1618 13.1836 7.54634 13.1836 6.91673C13.1836 6.07246 12.8482 5.26277 12.2512 4.66578C11.6542 4.06878 10.8445 3.7334 10.0002 3.7334V3.7334ZM10.0002 8.98896C9.59038 8.98896 9.18974 8.86742 8.84896 8.63972C8.50819 8.41202 8.24259 8.08839 8.08575 7.70974C7.9289 7.33109 7.88787 6.91443 7.96782 6.51246C8.04778 6.11049 8.24514 5.74126 8.53495 5.45145C8.82475 5.16164 9.19399 4.96428 9.59596 4.88433C9.99793 4.80437 10.4146 4.84541 10.7932 5.00225C11.1719 5.15909 11.4955 5.42469 11.7232 5.76547C11.9509 6.10624 12.0725 6.50689 12.0725 6.91673C12.071 7.46536 11.852 7.99101 11.4636 8.37842C11.0751 8.76584 10.5489 8.9834 10.0002 8.9834V8.98896Z" fill="#"/>
<path d="M10 1.11133C8.26957 1.11277 6.61 1.79893 5.38379 3.01994C4.15758 4.24094 3.46437 5.89757 3.45557 7.62799C3.45557 10.2224 4.91112 12.3947 5.97779 13.978L6.17223 14.2669C7.2335 15.805 8.372 17.2884 9.58335 18.7113L10.0056 19.2058L10.4278 18.7113C11.639 17.2883 12.7775 15.8049 13.8389 14.2669L14.0333 13.9724C15.0945 12.3891 16.55 10.2224 16.55 7.62799C16.5412 5.89661 15.8472 4.23914 14.6198 3.01798C13.3924 1.79682 11.7314 1.11131 10 1.11133V1.11133ZM13.1056 13.3336L12.9056 13.628C11.95 15.0613 10.6833 16.6669 10 17.4613C9.34446 16.6669 8.05001 15.0613 7.09446 13.628L6.90001 13.3336C5.91668 11.8669 4.56668 9.86133 4.56668 7.60577C4.56668 6.89226 4.70722 6.18573 4.98027 5.52653C5.25332 4.86732 5.65353 4.26836 6.15806 3.76383C6.6626 3.25929 7.26156 2.85908 7.92077 2.58603C8.57997 2.31298 9.2865 2.17244 10 2.17244C10.7135 2.17244 11.4201 2.31298 12.0793 2.58603C12.7385 2.85908 13.3374 3.25929 13.842 3.76383C14.3465 4.26836 14.7467 4.86732 15.0198 5.52653C15.2928 6.18573 15.4333 6.89226 15.4333 7.60577C15.4333 9.88355 14.0889 11.8891 13.1056 13.3336V13.3336Z" fill="#"/>
</symbol>
<symbol id="icon-loading" viewBox="0 0 20 20">
<path d="M10 20C8.65039 20 7.33984 19.7363 6.10742 19.2148C4.91602 18.7109 3.84766 17.9883 2.92969 17.0703C2.01172 16.1523 1.28906 15.084 0.785156 13.8926C0.263672 12.6602 0 11.3496 0 10C0 9.61133 0.314453 9.29688 0.703125 9.29688C1.0918 9.29688 1.40625 9.61133 1.40625 10C1.40625 11.1602 1.63281 12.2852 2.08203 13.3457C2.51562 14.3691 3.13477 15.2891 3.92383 16.0781C4.71289 16.8672 5.63281 17.4883 6.65625 17.9199C7.71484 18.3672 8.83984 18.5938 10 18.5938C11.1602 18.5938 12.2852 18.3672 13.3457 17.918C14.3691 17.4844 15.2891 16.8652 16.0781 16.0762C16.8672 15.2871 17.4883 14.3672 17.9199 13.3438C18.3672 12.2852 18.5938 11.1602 18.5938 10C18.5938 8.83984 18.3672 7.71484 17.918 6.6543C17.4858 5.63332 16.8604 4.70549 16.0762 3.92188C15.2934 3.13656 14.3654 2.51101 13.3438 2.08008C12.2852 1.63281 11.1602 1.40625 10 1.40625C9.61133 1.40625 9.29688 1.0918 9.29688 0.703125C9.29688 0.314453 9.61133 0 10 0C11.3496 0 12.6602 0.263672 13.8926 0.785156C15.084 1.28906 16.1523 2.01172 17.0703 2.92969C17.9883 3.84766 18.709 4.91797 19.2129 6.10742C19.7344 7.33984 19.998 8.65039 19.998 10C19.998 11.3496 19.7344 12.6602 19.2129 13.8926C18.7109 15.084 17.9883 16.1523 17.0703 17.0703C16.1523 17.9883 15.082 18.709 13.8926 19.2129C12.6602 19.7363 11.3496 20 10 20V20Z" fill=""/>
</symbol>
</defs>
</svg>













